<!-- CC BY-SA 4.0 (https://creativecommons.org/licenses/by-sa/4.0) -->
<!-- https://framagit.org/abakkk/DrawOnYourScreen/blob/ressources/DrawOnYourScreen.svg -->
<svg  width="128" height="128" viewBox="350 75 670 670" xmlns="http://www.w3.org/2000/svg">
  <path fill="BurlyWood" stroke="BurlyWood" stroke-opacity="0.4" stroke-width="5" stroke-linecap="round" stroke-linejoin="round" d="M730 130.09 L 729.57 129.24 L 726.85 129.24 L 724.85 129.24 L 718.85 129.24 L 715.85 129.24 L 714.85 129.24 L 713.86 129.24 L 711.95 129.24 L 709.95 129.24 L 706.95 129.24 L 702.95 129.24 L 700.95 129.24 L 699.95 128.24 L 699.03 128.24 L 697.3 128.24 L 696.3 128.24 L 695.32 128.24 L 694.5 128.24 L 692.54 128.24 L 689.54 128.24 L 686.54 128.24 L 684.54 128.24 L 682.54 128.24 L 681.54 128.24 L 678.57 128.24 L 675.57 129.24 L 672.57 130.24 L 669.57 130.24 L 667.57 131.24 L 665.57 131.24 L 661.57 132.24 L 659.57 132.24 L 656.57 133.24 L 655.58 133.24 L 653.59 133.24 L 650.59 133.24 L 648.59 134.24 L 647.61 134.24 L 644.63 134.24 L 641.63 135.24 L 637.63 135.24 L 633.63 135.24 L 631.63 135.24 L 627.64 136.24 L 625.67 137.22 L 620.67 138.22 L 618.67 139.22 L 616.67 139.22 L 613.67 140.22 L 610.67 142.22 L 607.67 143.22 L 606.67 143.22 L 602.67 145.22 L 600.69 145.22 L 598.69 146.22 L 597.71 146.22 L 595.73 147.21 L 594.78 147.21 L 592.83 147.21 L 591.83 147.21 L 587.85 149.2 L 585.85 149.2 L 582.85 150.2 L 580.85 150.2 L 575.85 151.2 L 574.86 151.2 L 573.88 152.19 L 570.88 154.19 L 569.92 154.19 L 567.97 155.19 L 566.97 155.19 L 563.97 157.19 L 560.99 158.19 L 559.99 159.19 L 558.2 160.14 L 557.22 161.13 L 556.28 162.06 L 555.66 162.69 L 555.09 162.69 L 554.55 162.69 L 552.56 164.46 L 550.56 165.46 L 547.56 166.46 L 544.56 168.46 L 539.56 170.46 L 537.56 171.46 L 533.56 174.46 L 531.56 176.46 L 528.58 178.44 L 525.58 179.44 L 522.58 181.44 L 519.58 183.44 L 516.58 184.44 L 514.58 186.44 L 513.6 186.44 L 508.7 188.43 L 506.7 189.43 L 504.7 191.43 L 502.7 192.43 L 500.7 193.43 L 499.7 194.43 L 495.86 196.36 L 494.87 197.35 L 490.89 198.33 L 485.85 202.36 L 483.94 203.31 L 482.94 204.31 L 481.96 205.29 L 481.07 206.18 L 480.09 207.16 L 479.1 207.16 L 477.12 209.15 L 473.12 213.15 L 471.12 215.15 L 468.12 217.15 L 467.12 218.15 L 463.12 222.15 L 460.12 224.15 L 458.21 227.01 L 453.21 229.01 L 448.21 232.01 L 446.21 234.01 L 444.21 236.01 L 442.21 237.01 L 440.21 238.01 L 439.23 238.99 L 437.27 240.95 L 436.29 241.93 L 435.29 242.93 L 432.29 244.93 L 430.29 246.93 L 428.29 249.93 L 428.29 250.92 L 425.3 253.91 L 423.3 255.91 L 420.3 259.91 L 419.3 260.91 L 416.3 264.91 L 414.3 266.91 L 411.3 271.91 L 410.3 273.91 L 409.3 275.91 L 409.3 277.88 L 408.3 279.84 L 407.34 280.79 L 405.34 284.79 L 403.34 288.79 L 402.34 291.79 L 400.34 294.79 L 396.35 302.77 L 395.35 305.78 L 393.35 309.78 L 391.36 314.75 L 390.36 316.75 L 389.36 319.75 L 389.36 322.75 L 387.36 326.75 L 387.36 329.75 L 384.36 336.75 L 384.36 339.75 L 382.36 343.75 L 382.36 346.75 L 381.36 349.75 L 380.36 352.75 L 379.43 354.62 L 378.43 356.62 L 377.44 360.59 L 376.44 363.59 L 374.44 369.59 L 373.44 373.59 L 372.44 376.59 L 372.44 378.59 L 371.44 383.59 L 371.44 386.59 L 371.44 393.59 L 370.44 397.59 L 370.44 400.59 L 370.44 403.59 L 370.44 406.55 L 370.44 409.55 L 370.44 412.55 L 370.44 415.55 L 370.44 418.55 L 370.44 420.55 L 370.44 424.55 L 370.44 426.55 L 370.44 429.52 L 370.44 432.52 L 370.44 435.52 L 370.44 438.52 L 370.44 443.52 L 370.44 446.52 L 370.44 452.52 L 371.44 455.52 L 372.44 457.52 L 374.4 460.47 L 376.4 465.47 L 376.4 468.47 L 377.4 469.47 L 377.4 470.45 L 379.37 472.42 L 380.37 474.41 L 381.37 476.41 L 383.37 481.41 L 384.37 484.41 L 386.37 488.41 L 387.37 490.41 L 387.37 492.31 L 390.37 497.31 L 391.37 500.31 L 391.37 502.29 L 392.37 504.27 L 392.37 506.26 L 393.37 507.26 L 395.37 512.26 L 396.37 514.26 L 399.37 519.26 L 400.37 521.26 L 402.34 523.22 L 403.34 524.22 L 406.34 529.22 L 407.29 530.18 L 409.25 532.14 L 410.25 533.14 L 410.25 534.09 L 414.16 538 L 416.16 541 L 421.16 546 L 422.16 547 L 424.07 548.91 L 429.07 552.91 L 431.07 554.91 L 432.03 555.87 L 432.96 556.8 L 433.94 557.78 L 435.93 560.68 L 437.89 562.64 L 441.89 568.64 L 443.89 570.64 L 446.89 574.64 L 447.89 576.64 L 449.85 578.6 L 453.85 582.6 L 455.85 585.6 L 459.85 590.6 L 460.85 592.6 L 463.85 595.6 L 464.85 596.6 L 467.85 599.6 L 468.84 600.58 L 469.79 602.34 L 471.79 604.34 L 472.79 606.34 L 475.79 609.34 L 476.79 610.34 L 477.79 611.34 L 480.79 615.34 L 482.79 617.34 L 485.79 620.34 L 486.79 621.34 L 488.66 624.15 L 490.66 626.15 L 494.66 630.15 L 495.59 631.08 L 499.52 633.01 L 502.52 635.01 L 504.52 636.01 L 506.5 637 L 509.5 640 L 512.5 642 L 513.37 642 L 517.12 642 L 522.12 645 L 527.12 648 L 528.11 648 L 533.1 650.99 L 535.1 651.99 L 542.15 656.02 L 544.12 657 L 546.93 657.94 L 550.93 660.94 L 552.93 661.94 L 553.93 662.94 L 554.86 662.94 L 557.72 663.87 L 559.71 664.86 L 562.71 666.86 L 565.71 667.86 L 567.69 668.85 L 569.66 668.85 L 570.66 669.85 L 573.62 670.84 L 577.62 673.84 L 578.61 673.84 L 584.59 674.84 L 588.59 675.84 L 592.59 676.84 L 594.59 677.84 L 597.59 678.84 L 602.59 679.84 L 604.59 680.84 L 611.59 682.84 L 617.59 682.84 L 619.59 682.84 L 620.57 682.84 L 621.34 682.84 L 627.21 685.71 L 630.21 685.71 L 633.19 685.71 L 636.19 686.71 L 641.19 687.71 L 644.19 688.71 L 649.16 689.71 L 651.16 689.71 L 655.14 689.71 L 658.14 690.71 L 665.14 691.71 L 672.14 691.71 L 675.14 692.71 L 676.06 692.71 L 678.78 692.71 L 681.75 692.71 L 687.75 691.71 L 691.75 691.71 L 694.75 690.71 L 698.71 690.71 L 699.64 690.71 L 702.55 690.71 L 705.55 690.71 L 709.55 690.71 L 711.55 690.71 L 715.53 690.71 L 717.53 690.71 L 719.5 690.71 L 723.5 690.71 L 730.5 690.71 L 731.5 690.71 L 733.48 690.71 L 736.45 690.71 L 740.45 690.71 L 744.45 689.71 L 746.44 688.71 L 751.43 687.71 L 753.43 687.71 L 761.43 686.71 L 764.43 685.71 L 767.43 684.71 L 772.43 684.71 L 774.43 684.71 L 776.43 683.71 L 777.35 683.71 L 780.2 683.71 L 782.2 682.71 L 785.11 681.71 L 791.08 680.71 L 795.08 680.71 L 798.08 680.71 L 798.96 680.71 L 800.48 680.71 L 806.48 680.71 L 810.48 680.71 L 812.48 679.71 L 817.6 674.59 L 819.5 674.59 L 826.5 673.59 L 827.5 672.59 L 831.45 671.6 L 835.44 670.6 L 838.42 669.61 L 839.42 668.61 L 842.39 668.61 L 844.39 668.61 L 846.38 667.61 L 851.29 666.62 L 855.29 665.62 L 857.05 665.62 L 860.03 665.62 L 863.03 665.62 L 867.03 663.62 L 869.03 663.62 L 874.03 661.62 L 879.03 658.62 L 880.03 658.62 L 883 657.62 L 887 655.62 L 890 653.62 L 894.03 651.61 L 896.05 650.6 L 898.05 649.6 L 901.05 648.6 L 904.01 648.6 L 908.01 646.6 L 909.01 646.6 L 909.99 645.62 L 911.89 644.63 L 913.79 643.68 L 915.79 642.68 L 917.77 642.68 L 920.77 640.68 L 923.77 638.68 L 926.77 636.68 L 928.76 635.68 L 929.74 634.69 L 933.74 631.69 L 935.74 630.69 L 937.74 628.69 L 940.74 626.69 L 942.71 625.71 L 944.71 623.71 L 945.71 622.71 L 946.69 621.72 L 948.4 620.95 L 952.4 617.95 L 953.38 616.97 L 955.25 615.1 L 959.25 612.1 L 962.25 610.1 L 963.17 609.18 L 963.88 608.48 L 964.86 607.49 L 965.75 606.61 L 966.45 605.91 L 969.38 602.98 L 970.37 601 L 971.37 599 L 973.33 597.04 L 975.32 594.06 L 977.32 591.06 L 978.3 590.08 L 980.26 587.14 L 981.03 586.37 L 981.97 584.8 L 982.92 582.89 L 983.91 580.92 L 984.91 578.93 L 985.86 576.16 L 986.86 575.16 L 987.86 574.16 L 988.81 572.29 L 989.77 571.33 L 989.77 570.6 L 991.77 566.79 L 992.75 564.83 L 994.74 561.85 L 995.67 559.98 L 996.67 556.98 L 996.67 556.05 L 997.67 553.43 L 998.63 550.57 L 999.58 548.67 L 999.58 545.76 L 999.58 544.81 L 999.58 543.14 L 1000.57 541.16 L 1000.57 538.18 L 1000.57 537.19 L 1000.57 535.48 L 1000.57 532.5 L 1000.57 530.52 L 1000.57 529.53 L 1000.57 528.71 L 1000.57 528.14 L 1000.57 526.85 L 1000.57 524.87 L 1000.57 523.91 L 1000.57 523.25 L 1000.57 520.63 L 1000.57 518.63 L 1000.57 513.63 L 1000.57 510.63 L 1000.57 509.65 L 1000.57 508.91 L 1000.57 507.45 L 1000.57 506.53 L 1000.57 502.54 L 1000.57 501.55 L 1000.57 500.82 L 1000.57 500.24 L 1000.57 499.65 L 1000.57 497.99 L 1000.57 497.25 L 1000.57 494.34 L 999.57 491.35 L 998.57 489.37 L 998.57 487.45 L 997.64 486.52 L 997.64 485.87 L 996.71 484.02 L 995.8 483.11 L 995.8 482.24 L 994.86 479.41 L 993.86 477.46 L 992.88 476.48 L 992.01 474.86 L 992.01 474 L 990.14 472.13 L 990.14 471.26 L 989.21 469.39 L 987.32 467.51 L 986.34 466.52 L 984.47 464.65 L 981.47 461.65 L 980.47 460.65 L 978.47 458.65 L 977.63 457.82 L 976.01 457.1 L 975.02 456.11 L 974.11 456.11 L 972.33 454.33 L 969.51 454.33 L 967.51 452.33 L 966.57 452.33 L 962.7 450.39 L 959.84 449.44 L 958.91 449.44 L 955.04 447.57 L 950.04 446.57 L 948.04 445.57 L 947.11 444.64 L 944.25 443.71 L 942.27 442.72 L 935.3 439.73 L 932.3 438.73 L 929.3 436.73 L 927.4 436.73 L 924.4 435.73 L 920.4 433.73 L 919.41 433.73 L 915.46 431.76 L 911.46 430.76 L 908.46 429.76 L 905.46 428.76 L 902.61 427.81 L 900.61 426.81 L 899.75 426.81 L 897.85 424.9 L 894.87 423.9 L 893.88 423.9 L 893.16 423.9 L 891.26 422 L 889.28 421 L 883.28 418 L 882.28 417 L 876.28 415 L 875.29 415 L 874.55 414.26 L 873.83 413.54 L 873.11 412.82 L 872.58 412.28 L 870.89 410.6 L 868.89 408.6 L 863.89 404.6 L 862.91 403.61 L 862.17 402.87 L 861.62 402.33 L 860.28 402.33 L 859.34 401.39 L 858.45 400.5 L 857.52 399.56 L 856.71 398.75 L 853.95 396.8 L 852.97 395.81 L 851.28 394.88 L 850.34 393.94 L 849.57 393.17 L 848.88 392.47 L 847.92 390.31 L 846.94 387.33 L 845.94 385.33 L 843.94 381.34 L 842.94 378.37 L 842.94 377.42 L 842.13 375.71 L 842.13 373.73 L 842.13 370.73 L 842.13 369.73 L 842.13 368.8 L 842.13 366.12 L 842.13 364.12 L 842.13 361.12 L 842.13 359.2 L 842.13 358.38 L 842.13 354.57 L 842.13 353.57 L 842.13 351.6 L 842.13 350.65 L 842.13 347.91 L 843.13 345.93 L 844.12 343.95 L 844.12 343.03 L 845.11 341.05 L 846.1 339.08 L 846.1 338.14 L 848.03 335.21 L 850.03 331.21 L 851.03 328.21 L 852.02 325.23 L 853.02 323.23 L 853.97 320.39 L 854.95 318.5 L 855.95 316.51 L 856.95 314.53 L 858.94 311.61 L 860.94 307.61 L 861.93 305.64 L 862.92 302.68 L 863.9 298.73 L 864.9 297.73 L 865.88 295.84 L 865.88 294.85 L 866.88 290.86 L 867.87 287.87 L 868.87 284.89 L 869.87 281.9 L 870.87 278.92 L 870.87 273.95 L 871.87 270.96 L 871.87 268.97 L 872.87 264 L 872.87 262.13 L 873.87 259.13 L 873.87 256.15 L 874.78 254.26 L 874.78 253.46 L 874.78 250.72 L 875.77 248.75 L 876.77 246.76 L 878.75 241.77 L 878.75 240.79 L 879.74 237.89 L 879.74 235.97 L 879.74 234.03 L 880.69 232.09 L 880.69 229.23 L 881.61 228.31 L 881.61 226.4 L 881.61 223.43 L 881.61 222.48 L 880.66 220.81 L 880.66 218.84 L 880.66 214.86 L 879.66 212.86 L 878.66 209.89 L 877.67 207.91 L 876.67 204.92 L 875.67 200.95 L 874.67 198.95 L 873.67 196.96 L 872.69 194.99 L 872.69 194.07 L 871.99 192.46 L 871 191.48 L 869 188.48 L 868.02 187.49 L 867.04 185.53 L 866.05 184.55 L 864.17 181.68 L 863.17 180.68 L 861.17 178.68 L 860.18 176.7 L 858.18 173.7 L 857.2 172.72 L 856.22 171.74 L 854.32 169.85 L 853.37 167.95 L 852.43 167 L 849.62 165.1 L 846.66 164.11 L 845.68 163.13 L 844.7 162.15 L 842.82 161.2 L 839.85 159.21 L 837.86 158.21 L 835.88 156.22 L 832.97 155.22 L 831.06 154.27 L 827.06 153.27 L 826.08 152.29 L 822.1 149.31 L 820.2 148.35 L 816.22 147.35 L 813.23 146.35 L 809.27 145.35 L 807.3 144.37 L 805.32 143.38 L 800.35 141.38 L 795.35 139.38 L 791.37 138.38 L 789.37 137.38 L 785.4 137.38 L 782.42 135.39 L 780.43 135.39 L 775.45 133.39 L 774.46 133.39 L 769.47 132.39 L 768.54 132.39 L 767.6 131.46 L 765.9 131.46 L 764.91 130.47 L 763 130.47 L 761.17 130.47 L 757.17 130.47 L 755.17 130.47 L 751.17 130.47 L 750.19 129.49 L 749.44 129.49 L 746.73 129.49 L 743.75 129.49 L 743.11 129.49 L 741.26 129.49 L 740.27 129.49 L 738.64 129.49 L 737.7 129.49 L 737.24 129.02 L 736.91 129.02 L 736.07 129.02z"/>
  <ellipse fill="#ff69b4ff" stroke="#ef59a455" stroke-width="5" stroke-linecap="round" stroke-linejoin="round" cx="690.06" cy="570.08" rx="96.16267051200278" ry="83" transform="rotate(-10, 690.06, 570.08)"/>
  <ellipse fill="#ffff00ff" stroke="#efef0055" stroke-width="4" stroke-linecap="round" stroke-linejoin="round" cx="508.43" cy="413.8" rx="83.51448856336249" ry="73" transform="rotate(15, 508.43, 413.8)"/>
  <ellipse fill="#00ffffff" stroke="#77ffff22" stroke-width="3" stroke-linecap="round" stroke-linejoin="round" cx="635.47" cy="244.66" rx="67.9415638618953" ry="57" transform="rotate(35, 635.47, 244.66)"/>
</svg>
